PathFileType	4	(X/Y/Z)	./resultDataOpenSim/trcMotMarkerGrf/sub06/qtm-03-07.trc
DataRate	CameraRate	NumFrames	NumMarkers	Units	OrigDataRate	OrigDataStartFrame	OrigNumFrames
250.000000	250.000000	10	24	m	250.000000	245	488
Frame#	Time	L.Toe.Tip			R.Toe.Tip			L.Ankle.Lat			R.Ankle.Lat			L.Ankle.Med			R.Ankle.Med			L.Heel			R.Heel			L.Knee.Lat			R.Knee.Lat			L.Knee.Med			R.Knee.Med			L.Thigh.Upper			R.Thigh.Upper			L.ASIS			R.ASIS			V.Sacral			L.Acromium			R.Acromium			C7			L.Elbow			R.Elbow			L.Wrist.Lat			R.Wrist.Lat
		X1	Y1	Z1	X2	Y2	Z2	X3	Y3	Z3	X4	Y4	Z4	X5	Y5	Z5	X6	Y6	Z6	X7	Y7	Z7	X8	Y8	Z8	X9	Y9	Z9	X10	Y10	Z10	X11	Y11	Z11	X12	Y12	Z12	X13	Y13	Z13	X14	Y14	Z14	X15	Y15	Z15	X16	Y16	Z16	X17	Y17	Z17	X18	Y18	Z18	X19	Y19	Z19	X20	Y20	Z20	X21	Y21	Z21	X22	Y22	Z22	X23	Y23	Z23	X24	Y24	Z24

245	0.976	0.094372631	-0.016029412	-0.0099712643	0.73819775	0.1170337	0.14296396	-0.014155193	0.052516286	-0.029575362	0.60496177	0.092660913	0.14980098	-0.0011880533	0.069352282	0.055649306	0.62466067	0.12733991	0.066909664	-0.087069133	0.047118165	0.022745336	0.57007687	0.056512316	0.080894513	0.13532651	0.39513019	-0.054272073	0.52345705	0.47718813	0.17636349	0.12924082	0.39616439	0.067003483	0.51094788	0.46098656	0.050901709	0.24592461	0.76304412	-0.1251319	0.29801177	0.77025657	0.22307585	0.33519653	0.80528314	-0.089757396	0.37236214	0.82033512	0.15194697	0.17453332	0.88860816	0.059324415	0.31005546	1.2976062	-0.13597999	0.31383963	1.2780753	0.22648019	0.23625014	1.3278987	0.044611099	0.30203802	0.97485173	-0.21662333	0.17041944	0.99696247	0.27842738	0.54135127	0.88691821	-0.16777568	0.23802502	0.77038976	0.32885659
246	0.98	0.094401687	-0.016040364	-0.010000235	0.75427505	0.11984165	0.14252075	-0.013449951	0.053137223	-0.029888306	0.62150666	0.092859339	0.14966096	-0.00047106938	0.069905902	0.055375007	0.64021382	0.12816406	0.067083139	-0.086458909	0.048472352	0.022359273	0.58696946	0.056213129	0.080996787	0.1391203	0.3945375	-0.054489714	0.53038655	0.47489002	0.17571856	0.13344383	0.39529376	0.066746016	0.51782351	0.45842528	0.049986432	0.25100992	0.76185377	-0.12493008	0.30723208	0.76845085	0.22261403	0.34071781	0.80374728	-0.089970652	0.37963994	0.818727	0.15140936	0.18127042	0.88701676	0.060250225	0.31667235	1.2959037	-0.13585458	0.32067167	1.2763372	0.22677597	0.24304968	1.3264	0.044869581	0.31014827	0.97310886	-0.21683208	0.17665336	0.99561258	0.27886401	0.55046378	0.88771737	-0.16655739	0.24333098	0.76895287	0.32968918
247	0.984	0.094427391	-0.016048677	-0.010027068	0.76962393	0.12257173	0.14210167	-0.012721157	0.053782392	-0.030182158	0.63716686	0.093335943	0.14964163	0.00026242224	0.070472021	0.055108407	0.65504432	0.12896084	0.067239004	-0.085815911	0.049863117	0.02199052	0.60310247	0.056035799	0.081151955	0.14303257	0.39390311	-0.054713493	0.53741214	0.47265815	0.17504898	0.13778761	0.39441003	0.066496032	0.5247181	0.45582117	0.049045627	0.2561317	0.76059059	-0.12469338	0.31645165	0.76659607	0.22207632	0.34639246	0.80216733	-0.090253635	0.3869169	0.81703832	0.1508667	0.18809805	0.88541263	0.061218247	0.32332076	1.2941733	-0.13572411	0.32751311	1.2745676	0.2270856	0.24987735	1.3248791	0.045132194	0.31839333	0.97129095	-0.21698106	0.18296864	0.99420074	0.27933918	0.55952419	0.88841541	-0.16535417	0.24890601	0.76752811	0.33060594
248	0.988	0.094445787	-0.016061124	-0.010053238	0.78419155	0.12519524	0.14170541	-0.011975083	0.054457334	-0.030454832	0.65190417	0.094009665	0.14970671	0.0010074765	0.071052187	0.054839402	0.66911515	0.12967828	0.067311445	-0.085138492	0.051300513	0.02163287	0.61844096	0.0559	0.081325548	0.14706176	0.39322566	-0.054936358	0.54456553	0.47054129	0.1743511	0.14223997	0.39353495	0.066248426	0.53159561	0.45317943	0.048102739	0.26130611	0.75925388	-0.12442823	0.32549712	0.76473391	0.22160541	0.35216992	0.80054737	-0.090593022	0.39424865	0.81530976	0.1503485	0.19503489	0.88379451	0.062214607	0.33000141	1.2924226	-0.13558717	0.33436985	1.2727736	0.22741447	0.25673606	1.3233446	0.045402704	0.32721099	0.9692648	-0.21693711	0.18936868	0.99273268	0.27984874	0.56853452	0.8890109	-0.16415778	0.25466678	0.76607937	0.33157087
249	0.992	0.094458353	-0.016081504	-0.01007736	0.79793665	0.12767414	0.14132936	-0.011208994	0.055160507	-0.030699695	0.66570579	0.09477439	0.14979985	0.0017569067	0.071637794	0.054555458	0.68242553	0.13031131	0.06727362	-0.084425753	0.052788392	0.021274815	0.63295947	0.055743142	0.081472445	0.15120253	0.39250458	-0.055139919	0.55191491	0.46859929	0.1736398	0.14678138	0.39268544	0.065995054	0.53839096	0.45050889	0.047213985	0.26654794	0.75786433	-0.12413108	0.33416703	0.76291302	0.22136582	0.35800416	0.79889801	-0.090968809	0.40163747	0.81354997	0.14985758	0.20205793	0.88217081	0.063222006	0.33671688	1.2906552	-0.13544503	0.34124653	1.2709634	0.22776706	0.26362921	1.3218045	0.045691718	0.33694309	0.96690878	-0.21658649	0.19585602	0.99121153	0.28038891	0.57748662	0.88950286	-0.16296603	0.26049889	0.76455461	0.33253229
250	0.996	0.094471122	-0.016107265	-0.010096481	0.81083988	0.12994921	0.14095072	-0.010403066	0.055894255	-0.030917092	0.6785832	0.095523316	0.14986442	0.0025169341	0.072228851	0.054252115	0.69497241	0.13085325	0.067136964	-0.083679701	0.054328647	0.020902171	0.64663668	0.055521488	0.081559135	0.15544427	0.39174445	-0.055310568	0.5595397	0.46690238	0.17293781	0.15141416	0.39186769	0.065722672	0.54504266	0.4478416	0.046480857	0.27186635	0.75644195	-0.12379788	0.34221477	0.76118943	0.22154609	0.36388403	0.7972325	-0.091368713	0.40906755	0.81175283	0.14938122	0.20912197	0.88054007	0.064219676	0.34347167	1.2888767	-0.13529889	0.3481437	1.2691458	0.22814477	0.27055827	1.3202652	0.04600851	0.34726064	0.96428488	-0.21596018	0.20242922	0.98964171	0.28095392	0.58636979	0.88988535	-0.16177796	0.26636522	0.76293816	0.33346927
251	1	0.094490531	-0.016131865	-0.010108725	0.82290311	0.13193952	0.14052774	-0.0095206835	0.056662276	-0.031122993	0.6905719	0.096162083	0.14985086	0.0033065321	0.072839015	0.053930604	0.70675424	0.13126664	0.06692263	-0.082896618	0.055930226	0.020508285	0.65945809	0.055204205	0.081563267	0.15977377	0.39095796	-0.055452926	0.56746442	0.4654995	0.17224343	0.15615471	0.39106506	0.065422804	0.5515615	0.44523548	0.045962088	0.27726359	0.75499265	-0.1234316	0.34941381	0.75961301	0.22231942	0.3698212	0.7955608	-0.091789945	0.41653114	0.80992345	0.14890659	0.21617961	0.87889916	0.06518904	0.35026715	1.2870965	-0.13514445	0.3550542	1.2673291	0.22854615	0.27752189	1.3187312	0.046353427	0.35726213	0.96165627	-0.21520896	0.2090857	0.98803127	0.2815356	0.59518031	0.89015326	-0.16059457	0.27231381	0.76126034	0.33439579
252	1.004	0.094519954	-0.016150335	-0.010115067	0.83414685	0.13356148	0.14002434	-0.00853917	0.057472601	-0.031347072	0.70171986	0.096615594	0.14972519	0.0041517181	0.073486822	0.053592931	0.71779121	0.13149302	0.066626867	-0.082050858	0.057612296	0.020108282	0.6714265	0.054765143	0.081467301	0.1641773	0.39016329	-0.055600622	0.57563153	0.46438052	0.17153404	0.16102009	0.39022768	0.065115741	0.55809679	0.44276352	0.045563523	0.28273961	0.75351406	-0.1230378	0.35578008	0.75818439	0.22370444	0.37582748	0.79388959	-0.092233144	0.42403186	0.80808057	0.14842802	0.22322833	0.8772708	0.06612662	0.35710098	1.2853261	-0.13497024	0.3619738	1.2655211	0.22897071	0.2845202	1.317207	0.046723789	0.36639401	0.95927086	-0.21447982	0.21582901	0.98638977	0.28212844	0.6039215	0.8903134	-0.15942219	0.2783979	0.7595588	0.33532876
253	1.008	0.094558819	-0.016162267	-0.010117961	0.84460734	0.13474443	0.13943011	-0.007468714	0.058337843	-0.031613345	0.71208338	0.09682131	0.14947105	0.0050993572	0.074198555	0.053248951	0.72812341	0.13147877	0.066230912	-0.081100267	0.059393976	0.019730777	0.68255755	0.054183093	0.081259586	0.16864073	0.38937469	-0.055811642	0.58394062	0.46347995	0.17081127	0.16600961	0.38930188	0.064851489	0.56486768	0.44050813	0.045127891	0.28829737	0.75201198	-0.12262901	0.36188545	0.7567968	0.22536144	0.38190379	0.79222661	-0.092696277	0.43158237	0.80624428	0.14794428	0.23031458	0.8757012	0.067042274	0.36397169	1.2835757	-0.13475924	0.36891177	1.2637313	0.22941924	0.29155954	1.3156951	0.047123926	0.37487941	0.95719834	-0.2138641	0.22266178	0.98472661	0.28273016	0.61259545	0.8903805	-0.1582707	0.28463492	0.75785169	0.33627286
254	1.012	0.094604271	-0.016170328	-0.010119464	0.85433011	0.13543211	0.13875385	-0.0063231457	0.059264791	-0.031924254	0.72172491	0.096727642	0.14908576	0.0061998049	0.07500383	0.052911939	0.73778551	0.13119492	0.065731875	-0.080016708	0.061282143	0.019386294	0.69286229	0.053446826	0.080935142	0.17315718	0.388599	-0.056131465	0.5923016	0.46271609	0.17011437	0.17108986	0.38829293	0.064653781	0.57199469	0.43855021	0.044623935	0.29394637	0.75050135	-0.12221974	0.36881103	0.75525314	0.22660965	0.38804783	0.79058063	-0.093173021	0.43919885	0.80442983	0.14745135	0.23747914	0.87421821	0.067941136	0.37088054	1.2818534	-0.13449477	0.37588764	1.2619716	0.22989334	0.29864886	1.3141958	0.047562163	0.38318847	0.95536381	-0.21336858	0.22956417	0.98305172	0.28333458	0.62119997	0.89036114	-0.15714762	0.29102344	0.75614474	0.33722731
